<svg width="1653" height="993" xmlns="http://www.w3.org/2000/svg" xmlns:xlink="http://www.w3.org/1999/xlink" xml:space="preserve" overflow="hidden"><defs><clipPath id="clip0"><rect x="2005" y="893" width="1653" height="993"/></clipPath></defs><g clip-path="url(#clip0)" transform="translate(-2005 -893)"><rect x="2006" y="894" width="1650" height="990" fill="#FFFFFF"/><g><path d="M2234.5 1428.55 3605.5 1428.55M2234.5 1367.55 3605.5 1367.55M2234.5 1306.54 3605.5 1306.54M2234.5 1246.54 3605.5 1246.54M2234.5 1185.54 3605.5 1185.54M2234.5 1124.54 3605.5 1124.54M2234.5 1063.5 3605.5 1063.5" stroke="#D9D9D9" stroke-width="3.4375" stroke-linejoin="round" stroke-miterlimit="10" fill="none"/></g><g><path d="M2287.07 1112.04 2334.08 1112.04 2334.08 1489 2287.07 1489ZM2439.08 1246.04 2487.08 1246.04 2487.08 1489 2439.08 1489ZM2591.08 1267.04 2639.09 1267.04 2639.09 1489 2591.08 1489ZM2744.09 1298.04 2791.09 1298.04 2791.09 1489 2744.09 1489ZM2896.09 1362.04 2944.1 1362.04 2944.1 1489 2896.09 1489ZM3048.1 1407.05 3096.1 1407.05 3096.1 1489 3048.1 1489ZM3201.1 1407.05 3248.11 1407.05 3248.11 1489 3201.1 1489ZM3353.11 1425.05 3401.11 1425.05 3401.11 1489 3353.11 1489ZM3505.11 1425.05 3553.12 1425.05 3553.12 1489 3505.11 1489Z" fill="#156082"/></g><g><path d="M2234.5 1489.5 3605.5 1489.5" stroke="#D9D9D9" stroke-width="3.4375" stroke-linejoin="round" stroke-miterlimit="10" fill="none" fill-rule="evenodd"/></g><g><text fill="#595959" font-family="Aptos Narrow,Aptos Narrow_MSFontService,sans-serif" font-weight="400" font-stretch="semi-condensed" font-size="41" transform="matrix(1 0 0 1 2175.42 1501)">0</text></g><g><text fill="#595959" font-family="Aptos Narrow,Aptos Narrow_MSFontService,sans-serif" font-weight="400" font-stretch="semi-condensed" font-size="41" transform="matrix(1 0 0 1 2175.42 1440)">2</text></g><g><text fill="#595959" font-family="Aptos Narrow,Aptos Narrow_MSFontService,sans-serif" font-weight="400" font-stretch="semi-condensed" font-size="41" transform="matrix(1 0 0 1 2175.42 1379)">4</text></g><g><text fill="#595959" font-family="Aptos Narrow,Aptos Narrow_MSFontService,sans-serif" font-weight="400" font-stretch="semi-condensed" font-size="41" transform="matrix(1 0 0 1 2175.42 1318)">6</text></g><g><text fill="#595959" font-family="Aptos Narrow,Aptos Narrow_MSFontService,sans-serif" font-weight="400" font-stretch="semi-condensed" font-size="41" transform="matrix(1 0 0 1 2175.42 1258)">8</text></g><g><text fill="#595959" font-family="Aptos Narrow,Aptos Narrow_MSFontService,sans-serif" font-weight="400" font-stretch="semi-condensed" font-size="41" transform="matrix(1 0 0 1 2154.52 1197)">10</text></g><g><text fill="#595959" font-family="Aptos Narrow,Aptos Narrow_MSFontService,sans-serif" font-weight="400" font-stretch="semi-condensed" font-size="41" transform="matrix(1 0 0 1 2154.52 1136)">12</text></g><g><text fill="#595959" font-family="Aptos Narrow,Aptos Narrow_MSFontService,sans-serif" font-weight="400" font-stretch="semi-condensed" font-size="41" transform="matrix(1 0 0 1 2154.52 1075)">14</text></g><g><text fill="#595959" font-family="Aptos Narrow,Aptos Narrow_MSFontService,sans-serif" font-weight="400" font-stretch="semi-condensed" font-size="41" transform="matrix(0.707107 -0.707107 0.707107 0.707107 2053.02 1810)">crossbeam_seg_queue</text></g><g><text fill="#595959" font-family="Aptos Narrow,Aptos Narrow_MSFontService,sans-serif" font-weight="400" font-stretch="semi-condensed" font-size="41" transform="matrix(0.707107 -0.707107 0.707107 0.707107 2294.28 1721)">crossbeam_lifo</text></g><g><text fill="#595959" font-family="Aptos Narrow,Aptos Narrow_MSFontService,sans-serif" font-weight="400" font-stretch="semi-condensed" font-size="41" transform="matrix(0.707107 -0.707107 0.707107 0.707107 2339.35 1828)">crossbeam_array_queue</text></g><g><text fill="#595959" font-family="Aptos Narrow,Aptos Narrow_MSFontService,sans-serif" font-weight="400" font-stretch="semi-condensed" font-size="41" transform="matrix(0.707107 -0.707107 0.707107 0.707107 2493.72 1826)">parcoll_mpmc_bounded</text></g><g><text fill="#595959" font-family="Aptos Narrow,Aptos Narrow_MSFontService,sans-serif" font-weight="400" font-stretch="semi-condensed" font-size="41" transform="matrix(0.707107 -0.707107 0.707107 0.707107 2750.23 1722)">crossbeam_fifo</text></g><g><text fill="#595959" font-family="Aptos Narrow,Aptos Narrow_MSFontService,sans-serif" font-weight="400" font-stretch="semi-condensed" font-size="41" transform="matrix(0.707107 -0.707107 0.707107 0.707107 2997.06 1628)">st3_lifo</text></g><g><text fill="#595959" font-family="Aptos Narrow,Aptos Narrow_MSFontService,sans-serif" font-weight="400" font-stretch="semi-condensed" font-size="41" transform="matrix(0.707107 -0.707107 0.707107 0.707107 3148.35 1629)">st3_fifo</text></g><g><text fill="#595959" font-family="Aptos Narrow,Aptos Narrow_MSFontService,sans-serif" font-weight="400" font-stretch="semi-condensed" font-size="41" transform="matrix(0.707107 -0.707107 0.707107 0.707107 3083.35 1846)">parcoll_spmc_unbounded</text></g><g><text fill="#595959" font-family="Aptos Narrow,Aptos Narrow_MSFontService,sans-serif" font-weight="400" font-stretch="semi-condensed" font-size="41" transform="matrix(0.707107 -0.707107 0.707107 0.707107 3265.33 1816)">parcoll_spmc_bounded</text></g><g><text fill="#595959" font-family="Aptos Narrow,Aptos Narrow_MSFontService,sans-serif" font-weight="400" font-stretch="semi-condensed" font-size="64" transform="matrix(1 0 0 1 2267.34 988)">us / push 256 elements + steal + 128 * 2 pop</text></g><rect x="2006.5" y="894.5" width="1650" height="990" stroke="#D9D9D9" stroke-width="3.4375" stroke-linejoin="round" stroke-miterlimit="10" fill="none"/></g></svg>